<mxfile host="app.diagrams.net" modified="2023-11-12T14:03:26.874Z" agent="Mozilla/5.0 (Windows NT 10.0; Win64; x64) AppleWebKit/537.36 (KHTML, like Gecko) Chrome/119.0.0.0 Safari/537.36" etag="CEjvkWfEOgXnxT_sUY-d" version="22.1.0" type="github">
  <diagram name="Side-1" id="2YQhx3_S_LwEAAOQCPry">
    <mxGraphModel dx="1434" dy="738" grid="1" gridSize="10" guides="1" tooltips="1" connect="1" arrows="1" fold="1" page="1" pageScale="1" pageWidth="3300" pageHeight="2339" math="0" shadow="0">
      <root>
        <mxCell id="0" />
        <mxCell id="1" parent="0" />
        <mxCell id="DLg5BMDLqmkaO7PMD6QA-1" value="PC" style="rounded=0;whiteSpace=wrap;html=1;rotation=-90;" parent="1" vertex="1">
          <mxGeometry x="2005" y="1092.65" width="120" height="60" as="geometry" />
        </mxCell>
        <mxCell id="DLg5BMDLqmkaO7PMD6QA-2" value="Program Memory" style="rounded=0;whiteSpace=wrap;html=1;rotation=90;horizontal=0;" parent="1" vertex="1">
          <mxGeometry x="2200" y="1090.15" width="155" height="62.5" as="geometry" />
        </mxCell>
        <mxCell id="DLg5BMDLqmkaO7PMD6QA-3" value="Control Unit&lt;br&gt;" style="rounded=0;whiteSpace=wrap;html=1;rotation=90;horizontal=0;" parent="1" vertex="1">
          <mxGeometry x="2470" y="1088.28" width="190.35" height="61.87" as="geometry" />
        </mxCell>
        <mxCell id="DLg5BMDLqmkaO7PMD6QA-4" value="&lt;font style=&quot;font-size: 11px;&quot;&gt;&lt;span style=&quot;font-size: 11px;&quot;&gt;Register File&lt;/span&gt;&lt;/font&gt;" style="rounded=0;whiteSpace=wrap;rotation=90;html=1;horizontal=0;verticalAlign=middle;align=center;glass=0;shadow=0;fontSize=11;" parent="1" vertex="1">
          <mxGeometry x="2439.0699999999997" y="1406.27" width="252.23" height="60" as="geometry" />
        </mxCell>
        <mxCell id="DLg5BMDLqmkaO7PMD6QA-5" value="" style="group;movable=1;resizable=1;rotatable=1;deletable=1;editable=1;locked=0;connectable=1;" parent="1" vertex="1" connectable="0">
          <mxGeometry x="2660.35" y="1352.15" width="42" height="90" as="geometry" />
        </mxCell>
        <mxCell id="DLg5BMDLqmkaO7PMD6QA-6" value="&amp;nbsp;ALU" style="verticalLabelPosition=middle;verticalAlign=middle;html=1;shape=trapezoid;perimeter=trapezoidPerimeter;whiteSpace=wrap;size=0.23;arcSize=10;flipV=1;labelPosition=center;align=center;rotation=-90;movable=1;resizable=1;rotatable=1;deletable=1;editable=1;locked=0;connectable=1;" parent="DLg5BMDLqmkaO7PMD6QA-5" vertex="1">
          <mxGeometry x="-21" y="21.90789473684211" width="84" height="43.81578947368422" as="geometry" />
        </mxCell>
        <mxCell id="DLg5BMDLqmkaO7PMD6QA-7" value="" style="group" parent="DLg5BMDLqmkaO7PMD6QA-5" vertex="1" connectable="0">
          <mxGeometry x="-1.1999999999999995" y="30.597157894736846" width="16.799999999999997" height="26.28947368421053" as="geometry" />
        </mxCell>
        <mxCell id="DLg5BMDLqmkaO7PMD6QA-8" value="" style="triangle;whiteSpace=wrap;html=1;movable=1;resizable=1;rotatable=1;deletable=1;editable=1;locked=0;connectable=1;" parent="DLg5BMDLqmkaO7PMD6QA-7" vertex="1">
          <mxGeometry width="16.799999999999997" height="26.28947368421053" as="geometry" />
        </mxCell>
        <mxCell id="DLg5BMDLqmkaO7PMD6QA-9" value="" style="endArrow=none;html=1;rounded=0;entryX=0.645;entryY=1.002;entryDx=0;entryDy=0;entryPerimeter=0;exitX=0.353;exitY=1.001;exitDx=0;exitDy=0;exitPerimeter=0;strokeColor=#FFFFFF;strokeWidth=2;movable=1;resizable=1;rotatable=1;deletable=1;editable=1;locked=0;connectable=1;" parent="DLg5BMDLqmkaO7PMD6QA-5" source="DLg5BMDLqmkaO7PMD6QA-6" target="DLg5BMDLqmkaO7PMD6QA-6" edge="1">
          <mxGeometry width="50" height="50" relative="1" as="geometry">
            <mxPoint x="25.199999999999953" y="87.63157894736852" as="sourcePoint" />
            <mxPoint x="67.19999999999995" y="43.81578947368431" as="targetPoint" />
          </mxGeometry>
        </mxCell>
        <mxCell id="DLg5BMDLqmkaO7PMD6QA-155" value="op1" style="text;html=1;strokeColor=none;fillColor=none;align=center;verticalAlign=middle;whiteSpace=wrap;rounded=0;" parent="DLg5BMDLqmkaO7PMD6QA-5" vertex="1">
          <mxGeometry x="-19.34999999999973" y="2.849999999999909" width="60" height="30" as="geometry" />
        </mxCell>
        <mxCell id="DLg5BMDLqmkaO7PMD6QA-10" value="" style="endArrow=classic;html=1;rounded=0;exitX=0.632;exitY=1.016;exitDx=0;exitDy=0;exitPerimeter=0;entryX=0.406;entryY=1.018;entryDx=0;entryDy=0;entryPerimeter=0;" parent="1" source="DLg5BMDLqmkaO7PMD6QA-1" target="DLg5BMDLqmkaO7PMD6QA-2" edge="1">
          <mxGeometry width="50" height="50" relative="1" as="geometry">
            <mxPoint x="2400" y="1300.15" as="sourcePoint" />
            <mxPoint x="2230" y="1110.15" as="targetPoint" />
          </mxGeometry>
        </mxCell>
        <mxCell id="DLg5BMDLqmkaO7PMD6QA-11" value="address" style="edgeLabel;html=1;align=center;verticalAlign=middle;resizable=0;points=[];" parent="DLg5BMDLqmkaO7PMD6QA-10" vertex="1" connectable="0">
          <mxGeometry x="-0.1803" y="-1" relative="1" as="geometry">
            <mxPoint x="7" y="-15" as="offset" />
          </mxGeometry>
        </mxCell>
        <mxCell id="DLg5BMDLqmkaO7PMD6QA-12" value="" style="group" parent="1" vertex="1" connectable="0">
          <mxGeometry x="2430" y="1100.15" height="330" as="geometry" />
        </mxCell>
        <mxCell id="DLg5BMDLqmkaO7PMD6QA-13" value="" style="endArrow=classic;html=1;rounded=0;entryX=0.399;entryY=0.994;entryDx=0;entryDy=0;entryPerimeter=0;exitX=0.362;exitY=-0.001;exitDx=0;exitDy=0;exitPerimeter=0;" parent="DLg5BMDLqmkaO7PMD6QA-12" source="DLg5BMDLqmkaO7PMD6QA-2" target="DLg5BMDLqmkaO7PMD6QA-3" edge="1">
          <mxGeometry width="50" height="50" relative="1" as="geometry">
            <mxPoint x="-90" y="9.705882352941176" as="sourcePoint" />
            <mxPoint x="-70" y="-9.705882352941176" as="targetPoint" />
          </mxGeometry>
        </mxCell>
        <mxCell id="DLg5BMDLqmkaO7PMD6QA-14" value="Instruction" style="edgeLabel;html=1;align=center;verticalAlign=middle;resizable=0;points=[];" parent="DLg5BMDLqmkaO7PMD6QA-13" vertex="1" connectable="0">
          <mxGeometry x="0.2863" y="-1" relative="1" as="geometry">
            <mxPoint x="-93" y="-12" as="offset" />
          </mxGeometry>
        </mxCell>
        <mxCell id="DLg5BMDLqmkaO7PMD6QA-15" value="[31-26]" style="edgeLabel;html=1;align=center;verticalAlign=middle;resizable=0;points=[];" parent="DLg5BMDLqmkaO7PMD6QA-13" vertex="1" connectable="0">
          <mxGeometry x="0.4741" relative="1" as="geometry">
            <mxPoint y="-14" as="offset" />
          </mxGeometry>
        </mxCell>
        <mxCell id="DLg5BMDLqmkaO7PMD6QA-17" value="" style="group;fillColor=none;" parent="1" vertex="1" connectable="0">
          <mxGeometry x="2390" y="1100.15" width="230" height="330" as="geometry" />
        </mxCell>
        <mxCell id="DLg5BMDLqmkaO7PMD6QA-18" value="" style="endArrow=classic;html=1;rounded=0;entryX=0.08;entryY=1.011;entryDx=0;entryDy=0;entryPerimeter=0;" parent="DLg5BMDLqmkaO7PMD6QA-17" target="DLg5BMDLqmkaO7PMD6QA-4" edge="1">
          <mxGeometry width="50" height="50" relative="1" as="geometry">
            <mxPoint x="1.0555923229648991" y="230" as="sourcePoint" />
            <mxPoint x="130" y="240" as="targetPoint" />
          </mxGeometry>
        </mxCell>
        <mxCell id="DLg5BMDLqmkaO7PMD6QA-19" value="[25-21]" style="edgeLabel;html=1;align=center;verticalAlign=middle;resizable=0;points=[];" parent="DLg5BMDLqmkaO7PMD6QA-18" vertex="1" connectable="0">
          <mxGeometry x="-0.0059" relative="1" as="geometry">
            <mxPoint x="-1" y="-10" as="offset" />
          </mxGeometry>
        </mxCell>
        <mxCell id="DLg5BMDLqmkaO7PMD6QA-20" value="" style="endArrow=classic;html=1;rounded=0;entryX=0.165;entryY=1.001;entryDx=0;entryDy=0;entryPerimeter=0;" parent="DLg5BMDLqmkaO7PMD6QA-17" edge="1">
          <mxGeometry width="50" height="50" relative="1" as="geometry">
            <mxPoint x="1.0555923229648991" y="269.8800000000001" as="sourcePoint" />
            <mxPoint x="145" y="269.8800000000001" as="targetPoint" />
          </mxGeometry>
        </mxCell>
        <mxCell id="DLg5BMDLqmkaO7PMD6QA-21" value="[20-16]" style="edgeLabel;html=1;align=center;verticalAlign=middle;resizable=0;points=[];" parent="DLg5BMDLqmkaO7PMD6QA-20" vertex="1" connectable="0">
          <mxGeometry x="-0.1136" y="2" relative="1" as="geometry">
            <mxPoint x="-34" y="-8" as="offset" />
          </mxGeometry>
        </mxCell>
        <mxCell id="DLg5BMDLqmkaO7PMD6QA-22" value="" style="endArrow=classic;html=1;rounded=0;entryX=0.196;entryY=0.996;entryDx=0;entryDy=0;entryPerimeter=0;" parent="DLg5BMDLqmkaO7PMD6QA-17" target="DLg5BMDLqmkaO7PMD6QA-79" edge="1">
          <mxGeometry width="50" height="50" relative="1" as="geometry">
            <mxPoint y="330" as="sourcePoint" />
            <mxPoint x="110" y="329.77250000000004" as="targetPoint" />
            <Array as="points">
              <mxPoint x="90" y="329.8499999999999" />
              <mxPoint x="90" y="369.8499999999999" />
            </Array>
          </mxGeometry>
        </mxCell>
        <mxCell id="DLg5BMDLqmkaO7PMD6QA-23" value="" style="endArrow=classic;html=1;rounded=0;" parent="DLg5BMDLqmkaO7PMD6QA-17" edge="1">
          <mxGeometry width="50" height="50" relative="1" as="geometry">
            <mxPoint x="1.0555923229648991" y="300" as="sourcePoint" />
            <mxPoint x="90" y="299.8499999999999" as="targetPoint" />
          </mxGeometry>
        </mxCell>
        <mxCell id="DLg5BMDLqmkaO7PMD6QA-24" value="[15-11]" style="edgeLabel;html=1;align=center;verticalAlign=middle;resizable=0;points=[];" parent="DLg5BMDLqmkaO7PMD6QA-23" vertex="1" connectable="0">
          <mxGeometry x="-0.2198" y="1" relative="1" as="geometry">
            <mxPoint x="-4" y="-12" as="offset" />
          </mxGeometry>
        </mxCell>
        <mxCell id="DLg5BMDLqmkaO7PMD6QA-25" value="" style="endArrow=none;html=1;rounded=0;" parent="DLg5BMDLqmkaO7PMD6QA-17" edge="1">
          <mxGeometry width="50" height="50" relative="1" as="geometry">
            <mxPoint y="330" as="sourcePoint" />
            <mxPoint as="targetPoint" />
          </mxGeometry>
        </mxCell>
        <mxCell id="DLg5BMDLqmkaO7PMD6QA-144" value="[15-0]" style="edgeLabel;html=1;align=center;verticalAlign=middle;resizable=0;points=[];" parent="DLg5BMDLqmkaO7PMD6QA-25" vertex="1" connectable="0">
          <mxGeometry x="-0.8908" y="1" relative="1" as="geometry">
            <mxPoint x="-9" y="30" as="offset" />
          </mxGeometry>
        </mxCell>
        <mxCell id="DLg5BMDLqmkaO7PMD6QA-27" value="&lt;font style=&quot;font-size: 10px;&quot;&gt;bSel&lt;/font&gt;" style="text;html=1;strokeColor=none;fillColor=none;align=center;verticalAlign=middle;whiteSpace=wrap;rounded=0;" parent="DLg5BMDLqmkaO7PMD6QA-17" vertex="1">
          <mxGeometry x="131" y="273.85" width="60" height="30" as="geometry" />
        </mxCell>
        <mxCell id="DLg5BMDLqmkaO7PMD6QA-28" value="isIm" style="text;html=1;strokeColor=none;fillColor=none;align=center;verticalAlign=middle;whiteSpace=wrap;rounded=0;" parent="DLg5BMDLqmkaO7PMD6QA-17" vertex="1">
          <mxGeometry x="129" y="90" width="60" height="30" as="geometry" />
        </mxCell>
        <mxCell id="DLg5BMDLqmkaO7PMD6QA-29" value="ALUopr" style="text;html=1;strokeColor=none;fillColor=none;align=center;verticalAlign=middle;whiteSpace=wrap;rounded=0;fontSize=8;" parent="DLg5BMDLqmkaO7PMD6QA-17" vertex="1">
          <mxGeometry x="160" y="54.99999999999999" width="60" height="30" as="geometry" />
        </mxCell>
        <mxCell id="DLg5BMDLqmkaO7PMD6QA-109" value="fromMem" style="text;html=1;strokeColor=none;fillColor=none;align=center;verticalAlign=middle;whiteSpace=wrap;rounded=0;fontSize=8;" parent="DLg5BMDLqmkaO7PMD6QA-17" vertex="1">
          <mxGeometry x="156" y="85" width="60" height="30" as="geometry" />
        </mxCell>
        <mxCell id="DLg5BMDLqmkaO7PMD6QA-147" value="" style="shape=trapezoid;perimeter=trapezoidPerimeter;whiteSpace=wrap;html=1;fixedSize=1;rotation=90;size=8.75;" parent="DLg5BMDLqmkaO7PMD6QA-17" vertex="1">
          <mxGeometry x="80" y="285.8499999999998" width="31.25" height="9.9" as="geometry" />
        </mxCell>
        <mxCell id="DLg5BMDLqmkaO7PMD6QA-30" value="" style="endArrow=none;html=1;rounded=0;" parent="1" edge="1">
          <mxGeometry width="50" height="50" relative="1" as="geometry">
            <mxPoint x="2400" y="1440.15" as="sourcePoint" />
            <mxPoint x="2410" y="1420.15" as="targetPoint" />
          </mxGeometry>
        </mxCell>
        <mxCell id="DLg5BMDLqmkaO7PMD6QA-31" value="16" style="edgeLabel;html=1;align=center;verticalAlign=middle;resizable=0;points=[];" parent="DLg5BMDLqmkaO7PMD6QA-30" vertex="1" connectable="0">
          <mxGeometry x="0.3496" y="1" relative="1" as="geometry">
            <mxPoint x="4" y="-11" as="offset" />
          </mxGeometry>
        </mxCell>
        <mxCell id="DLg5BMDLqmkaO7PMD6QA-32" value="&lt;font style=&quot;font-size: 5px;&quot;&gt;Extender&lt;/font&gt;" style="rounded=0;whiteSpace=wrap;html=1;verticalAlign=bottom;" parent="1" vertex="1">
          <mxGeometry x="2430" y="1420.15" width="30" height="20" as="geometry" />
        </mxCell>
        <mxCell id="DLg5BMDLqmkaO7PMD6QA-33" value="&lt;font style=&quot;font-size: 10px;&quot;&gt;writeSel&lt;/font&gt;" style="text;html=1;strokeColor=none;fillColor=none;align=center;verticalAlign=middle;whiteSpace=wrap;rounded=0;" parent="1" vertex="1">
          <mxGeometry x="2528.75" y="1314.15" width="60" height="30" as="geometry" />
        </mxCell>
        <mxCell id="DLg5BMDLqmkaO7PMD6QA-34" value="&lt;font style=&quot;font-size: 10px;&quot;&gt;aSel&lt;/font&gt;" style="text;html=1;strokeColor=none;fillColor=none;align=center;verticalAlign=middle;whiteSpace=wrap;rounded=0;" parent="1" vertex="1">
          <mxGeometry x="2520" y="1353.15" width="60" height="30" as="geometry" />
        </mxCell>
        <mxCell id="DLg5BMDLqmkaO7PMD6QA-37" value="" style="endArrow=classic;html=1;rounded=0;exitX=0.765;exitY=0.01;exitDx=0;exitDy=0;entryX=1;entryY=0.5;entryDx=0;entryDy=0;exitPerimeter=0;fillColor=#dae8fc;strokeColor=#6c8ebf;" parent="1" source="DLg5BMDLqmkaO7PMD6QA-3" target="DLg5BMDLqmkaO7PMD6QA-6" edge="1">
          <mxGeometry width="50" height="50" relative="1" as="geometry">
            <mxPoint x="2420" y="1400.15" as="sourcePoint" />
            <mxPoint x="2470" y="1350.15" as="targetPoint" />
            <Array as="points">
              <mxPoint x="2680" y="1170.15" />
            </Array>
          </mxGeometry>
        </mxCell>
        <mxCell id="DLg5BMDLqmkaO7PMD6QA-38" value="" style="endArrow=classic;html=1;rounded=0;entryX=0.805;entryY=1.014;entryDx=0;entryDy=0;entryPerimeter=0;exitX=0.238;exitY=-0.015;exitDx=0;exitDy=0;exitPerimeter=0;" parent="1" source="DLg5BMDLqmkaO7PMD6QA-4" target="DLg5BMDLqmkaO7PMD6QA-6" edge="1">
          <mxGeometry width="50" height="50" relative="1" as="geometry">
            <mxPoint x="2560" y="1470.15" as="sourcePoint" />
            <mxPoint x="2610" y="1420.15" as="targetPoint" />
          </mxGeometry>
        </mxCell>
        <mxCell id="DLg5BMDLqmkaO7PMD6QA-40" value="a" style="text;html=1;strokeColor=none;fillColor=none;align=center;verticalAlign=middle;whiteSpace=wrap;rounded=0;" parent="1" vertex="1">
          <mxGeometry x="2560" y="1353.15" width="60" height="30" as="geometry" />
        </mxCell>
        <mxCell id="DLg5BMDLqmkaO7PMD6QA-41" value="b" style="text;html=1;strokeColor=none;fillColor=none;align=center;verticalAlign=middle;whiteSpace=wrap;rounded=0;" parent="1" vertex="1">
          <mxGeometry x="2560" y="1415.15" width="60" height="30" as="geometry" />
        </mxCell>
        <mxCell id="DLg5BMDLqmkaO7PMD6QA-42" value="" style="endArrow=none;html=1;rounded=0;" parent="1" edge="1">
          <mxGeometry width="50" height="50" relative="1" as="geometry">
            <mxPoint x="2473" y="1440.15" as="sourcePoint" />
            <mxPoint x="2483" y="1420.15" as="targetPoint" />
          </mxGeometry>
        </mxCell>
        <mxCell id="DLg5BMDLqmkaO7PMD6QA-43" value="32" style="edgeLabel;html=1;align=center;verticalAlign=middle;resizable=0;points=[];" parent="DLg5BMDLqmkaO7PMD6QA-42" vertex="1" connectable="0">
          <mxGeometry x="0.3496" y="1" relative="1" as="geometry">
            <mxPoint x="4" y="-11" as="offset" />
          </mxGeometry>
        </mxCell>
        <mxCell id="DLg5BMDLqmkaO7PMD6QA-45" value="" style="endArrow=classic;html=1;rounded=0;exitX=0.69;exitY=0.001;exitDx=0;exitDy=0;exitPerimeter=0;entryX=-0.009;entryY=0.831;entryDx=0;entryDy=0;entryPerimeter=0;" parent="1" target="DLg5BMDLqmkaO7PMD6QA-110" edge="1">
          <mxGeometry width="50" height="50" relative="1" as="geometry">
            <mxPoint x="2702.3540789473686" y="1380.0057894736842" as="sourcePoint" />
            <mxPoint x="2590.36" y="929.9974999999998" as="targetPoint" />
            <Array as="points">
              <mxPoint x="2780" y="1380.15" />
              <mxPoint x="2780" y="930.15" />
            </Array>
          </mxGeometry>
        </mxCell>
        <mxCell id="DLg5BMDLqmkaO7PMD6QA-157" value="isZero" style="edgeLabel;html=1;align=center;verticalAlign=middle;resizable=0;points=[];" parent="DLg5BMDLqmkaO7PMD6QA-45" vertex="1" connectable="0">
          <mxGeometry x="-0.9515" y="-1" relative="1" as="geometry">
            <mxPoint x="3" y="-11" as="offset" />
          </mxGeometry>
        </mxCell>
        <mxCell id="DLg5BMDLqmkaO7PMD6QA-48" value="" style="endArrow=classic;html=1;rounded=0;exitX=0.189;exitY=0.021;exitDx=0;exitDy=0;entryX=0.009;entryY=0.165;entryDx=0;entryDy=0;exitPerimeter=0;fillColor=#dae8fc;strokeColor=#6c8ebf;entryPerimeter=0;" parent="1" source="DLg5BMDLqmkaO7PMD6QA-3" target="DLg5BMDLqmkaO7PMD6QA-110" edge="1">
          <mxGeometry width="50" height="50" relative="1" as="geometry">
            <mxPoint x="2480" y="1100.15" as="sourcePoint" />
            <mxPoint x="2583.382530120482" y="962.8909638554219" as="targetPoint" />
            <Array as="points">
              <mxPoint x="2630" y="1060" />
              <mxPoint x="2630" y="960" />
            </Array>
          </mxGeometry>
        </mxCell>
        <mxCell id="DLg5BMDLqmkaO7PMD6QA-49" value="&lt;font style=&quot;font-size: 8px;&quot;&gt;branch&lt;br&gt;Cond&lt;/font&gt;" style="edgeLabel;html=1;align=center;verticalAlign=middle;resizable=0;points=[];" parent="DLg5BMDLqmkaO7PMD6QA-48" vertex="1" connectable="0">
          <mxGeometry x="-0.0093" y="-1" relative="1" as="geometry">
            <mxPoint x="-51" y="49" as="offset" />
          </mxGeometry>
        </mxCell>
        <mxCell id="DLg5BMDLqmkaO7PMD6QA-53" value="" style="endArrow=classic;html=1;rounded=0;exitX=0;exitY=0.75;exitDx=0;exitDy=0;entryX=0.861;entryY=-0.027;entryDx=0;entryDy=0;entryPerimeter=0;fillColor=#dae8fc;strokeColor=#6c8ebf;" parent="1" source="DLg5BMDLqmkaO7PMD6QA-3" target="DLg5BMDLqmkaO7PMD6QA-1" edge="1">
          <mxGeometry width="50" height="50" relative="1" as="geometry">
            <mxPoint x="2250" y="1120.15" as="sourcePoint" />
            <mxPoint x="2300" y="1070.15" as="targetPoint" />
            <Array as="points">
              <mxPoint x="2550" y="1000.15" />
              <mxPoint x="2020" y="1000.15" />
              <mxPoint x="2020" y="1080.15" />
            </Array>
          </mxGeometry>
        </mxCell>
        <mxCell id="DLg5BMDLqmkaO7PMD6QA-54" value="END" style="edgeLabel;html=1;align=center;verticalAlign=middle;resizable=0;points=[];" parent="DLg5BMDLqmkaO7PMD6QA-53" vertex="1" connectable="0">
          <mxGeometry x="-0.1738" relative="1" as="geometry">
            <mxPoint x="243" y="32" as="offset" />
          </mxGeometry>
        </mxCell>
        <mxCell id="DLg5BMDLqmkaO7PMD6QA-138" value="END" style="edgeLabel;html=1;align=center;verticalAlign=middle;resizable=0;points=[];" parent="DLg5BMDLqmkaO7PMD6QA-53" vertex="1" connectable="0">
          <mxGeometry x="0.8282" relative="1" as="geometry">
            <mxPoint x="29" y="41" as="offset" />
          </mxGeometry>
        </mxCell>
        <mxCell id="DLg5BMDLqmkaO7PMD6QA-55" value="" style="endArrow=classic;html=1;rounded=0;entryX=0.519;entryY=-0.001;entryDx=0;entryDy=0;entryPerimeter=0;" parent="1" target="DLg5BMDLqmkaO7PMD6QA-1" edge="1">
          <mxGeometry width="50" height="50" relative="1" as="geometry">
            <mxPoint x="1860" y="1120.15" as="sourcePoint" />
            <mxPoint x="2150" y="1130.15" as="targetPoint" />
          </mxGeometry>
        </mxCell>
        <mxCell id="DLg5BMDLqmkaO7PMD6QA-56" value="run" style="edgeLabel;html=1;align=center;verticalAlign=middle;resizable=0;points=[];" parent="DLg5BMDLqmkaO7PMD6QA-55" vertex="1" connectable="0">
          <mxGeometry x="-0.4301" relative="1" as="geometry">
            <mxPoint x="137" as="offset" />
          </mxGeometry>
        </mxCell>
        <mxCell id="DLg5BMDLqmkaO7PMD6QA-57" value="" style="endArrow=none;html=1;rounded=0;" parent="1" edge="1">
          <mxGeometry width="50" height="50" relative="1" as="geometry">
            <mxPoint x="1860" y="1130.15" as="sourcePoint" />
            <mxPoint x="1870" y="1110.15" as="targetPoint" />
          </mxGeometry>
        </mxCell>
        <mxCell id="DLg5BMDLqmkaO7PMD6QA-58" value="" style="endArrow=classic;html=1;rounded=0;entryX=0.106;entryY=-0.008;entryDx=0;entryDy=0;entryPerimeter=0;" parent="1" target="DLg5BMDLqmkaO7PMD6QA-1" edge="1">
          <mxGeometry width="50" height="50" relative="1" as="geometry">
            <mxPoint x="2390" y="1430.15" as="sourcePoint" />
            <mxPoint x="2100" y="1260.15" as="targetPoint" />
            <Array as="points">
              <mxPoint x="1980" y="1430.15" />
              <mxPoint x="1980" y="1170.15" />
            </Array>
          </mxGeometry>
        </mxCell>
        <mxCell id="DLg5BMDLqmkaO7PMD6QA-59" value="&lt;span style=&quot;font-size: 8px;&quot;&gt;jumpAddress&lt;/span&gt;" style="edgeLabel;html=1;align=center;verticalAlign=middle;resizable=0;points=[];" parent="DLg5BMDLqmkaO7PMD6QA-58" vertex="1" connectable="0">
          <mxGeometry x="-0.3225" y="-1" relative="1" as="geometry">
            <mxPoint x="-85" y="-259" as="offset" />
          </mxGeometry>
        </mxCell>
        <mxCell id="DLg5BMDLqmkaO7PMD6QA-60" value="&lt;font style=&quot;font-size: 12px;&quot;&gt;Data Memory&lt;/font&gt;" style="rounded=0;whiteSpace=wrap;html=1;rotation=90;horizontal=0;verticalAlign=middle;fontSize=9;" parent="1" vertex="1">
          <mxGeometry x="2910" y="1344.15" width="155" height="62.5" as="geometry" />
        </mxCell>
        <mxCell id="DLg5BMDLqmkaO7PMD6QA-77" value="" style="endArrow=classic;html=1;rounded=0;exitX=0.294;exitY=-0.002;exitDx=0;exitDy=0;exitPerimeter=0;entryX=0.001;entryY=0.785;entryDx=0;entryDy=0;entryPerimeter=0;fillColor=#dae8fc;strokeColor=#6c8ebf;" parent="1" source="DLg5BMDLqmkaO7PMD6QA-3" target="DLg5BMDLqmkaO7PMD6QA-60" edge="1">
          <mxGeometry width="50" height="50" relative="1" as="geometry">
            <mxPoint x="2730" y="1310.15" as="sourcePoint" />
            <mxPoint x="2780" y="1260.15" as="targetPoint" />
            <Array as="points">
              <mxPoint x="2970" y="1080" />
            </Array>
          </mxGeometry>
        </mxCell>
        <mxCell id="DLg5BMDLqmkaO7PMD6QA-79" value="" style="shape=trapezoid;perimeter=trapezoidPerimeter;whiteSpace=wrap;html=1;fixedSize=1;rotation=90;size=8.75;" parent="1" vertex="1">
          <mxGeometry x="2478.75" y="1479.9" width="50" height="10" as="geometry" />
        </mxCell>
        <mxCell id="DLg5BMDLqmkaO7PMD6QA-80" value="&lt;font size=&quot;1&quot;&gt;1&lt;br&gt;&lt;br&gt;0&lt;br&gt;&lt;/font&gt;" style="text;html=1;strokeColor=none;fillColor=none;align=center;verticalAlign=middle;whiteSpace=wrap;rounded=0;" parent="1" vertex="1">
          <mxGeometry x="2473.75" y="1470" width="60" height="30" as="geometry" />
        </mxCell>
        <mxCell id="DLg5BMDLqmkaO7PMD6QA-87" value="" style="endArrow=classic;html=1;rounded=0;exitX=0.405;exitY=0;exitDx=0;exitDy=0;entryX=0.674;entryY=0.993;entryDx=0;entryDy=0;entryPerimeter=0;exitPerimeter=0;" parent="1" source="DLg5BMDLqmkaO7PMD6QA-79" target="DLg5BMDLqmkaO7PMD6QA-4" edge="1">
          <mxGeometry width="50" height="50" relative="1" as="geometry">
            <mxPoint x="2570" y="1410.15" as="sourcePoint" />
            <mxPoint x="2620" y="1360.15" as="targetPoint" />
          </mxGeometry>
        </mxCell>
        <mxCell id="DLg5BMDLqmkaO7PMD6QA-88" value="&lt;font style=&quot;font-size: 10px;&quot;&gt;writeData&lt;/font&gt;" style="text;html=1;strokeColor=none;fillColor=none;align=center;verticalAlign=middle;whiteSpace=wrap;rounded=0;" parent="1" vertex="1">
          <mxGeometry x="2529" y="1464.15" width="60" height="30" as="geometry" />
        </mxCell>
        <mxCell id="DLg5BMDLqmkaO7PMD6QA-89" value="" style="endArrow=classic;html=1;rounded=0;entryX=0.912;entryY=1.001;entryDx=0;entryDy=0;entryPerimeter=0;fillColor=#dae8fc;strokeColor=#6c8ebf;exitX=0.71;exitY=0.016;exitDx=0;exitDy=0;exitPerimeter=0;" parent="1" source="DLg5BMDLqmkaO7PMD6QA-3" target="DLg5BMDLqmkaO7PMD6QA-4" edge="1">
          <mxGeometry width="50" height="50" relative="1" as="geometry">
            <mxPoint x="2640" y="1150" as="sourcePoint" />
            <mxPoint x="2660" y="1460.15" as="targetPoint" />
            <Array as="points">
              <mxPoint x="2740" y="1160" />
              <mxPoint x="2740" y="1580.15" />
              <mxPoint x="2510" y="1580.15" />
              <mxPoint x="2510" y="1540.15" />
            </Array>
          </mxGeometry>
        </mxCell>
        <mxCell id="DLg5BMDLqmkaO7PMD6QA-90" value="&lt;font style=&quot;font-size: 9px;&quot;&gt;WriteEnable&lt;/font&gt;" style="edgeLabel;html=1;align=center;verticalAlign=middle;resizable=0;points=[];" parent="DLg5BMDLqmkaO7PMD6QA-89" vertex="1" connectable="0">
          <mxGeometry x="0.4166" relative="1" as="geometry">
            <mxPoint x="-133" y="-40" as="offset" />
          </mxGeometry>
        </mxCell>
        <mxCell id="DLg5BMDLqmkaO7PMD6QA-94" value="" style="endArrow=classic;html=1;rounded=0;exitX=0.331;exitY=-0.001;exitDx=0;exitDy=0;exitPerimeter=0;entryX=0.806;entryY=1.042;entryDx=0;entryDy=0;entryPerimeter=0;" parent="1" source="DLg5BMDLqmkaO7PMD6QA-6" target="DLg5BMDLqmkaO7PMD6QA-103" edge="1">
          <mxGeometry width="50" height="50" relative="1" as="geometry">
            <mxPoint x="2830" y="1350.15" as="sourcePoint" />
            <mxPoint x="2780" y="1570" as="targetPoint" />
            <Array as="points">
              <mxPoint x="2790" y="1410" />
              <mxPoint x="2790" y="1570" />
            </Array>
          </mxGeometry>
        </mxCell>
        <mxCell id="DLg5BMDLqmkaO7PMD6QA-95" value="result" style="edgeLabel;html=1;align=center;verticalAlign=middle;resizable=0;points=[];" parent="DLg5BMDLqmkaO7PMD6QA-94" vertex="1" connectable="0">
          <mxGeometry x="-0.1128" relative="1" as="geometry">
            <mxPoint x="-70" y="-24" as="offset" />
          </mxGeometry>
        </mxCell>
        <mxCell id="DLg5BMDLqmkaO7PMD6QA-100" value="writeEnable" style="text;html=1;strokeColor=none;fillColor=none;align=center;verticalAlign=middle;whiteSpace=wrap;rounded=0;fontSize=8;" parent="1" vertex="1">
          <mxGeometry x="2955" y="1290.3000000000002" width="60" height="30" as="geometry" />
        </mxCell>
        <mxCell id="DLg5BMDLqmkaO7PMD6QA-101" value="&lt;font style=&quot;font-size: 9px;&quot;&gt;DataWrite&lt;/font&gt;" style="text;html=1;strokeColor=none;fillColor=none;align=center;verticalAlign=middle;whiteSpace=wrap;rounded=0;" parent="1" vertex="1">
          <mxGeometry x="2949" y="1385.15" width="60" height="30" as="geometry" />
        </mxCell>
        <mxCell id="DLg5BMDLqmkaO7PMD6QA-71" value="" style="endArrow=classic;html=1;rounded=0;exitX=1;exitY=0.75;exitDx=0;exitDy=0;entryX=0;entryY=0.5;entryDx=0;entryDy=0;fillColor=#dae8fc;strokeColor=#6c8ebf;" parent="1" source="DLg5BMDLqmkaO7PMD6QA-3" target="DLg5BMDLqmkaO7PMD6QA-79" edge="1">
          <mxGeometry width="50" height="50" relative="1" as="geometry">
            <mxPoint x="2391.124694376528" y="1290.15" as="sourcePoint" />
            <mxPoint x="2505" y="1395.775" as="targetPoint" />
            <Array as="points">
              <mxPoint x="2550" y="1280" />
              <mxPoint x="2505" y="1280.15" />
            </Array>
          </mxGeometry>
        </mxCell>
        <mxCell id="DLg5BMDLqmkaO7PMD6QA-103" value="" style="shape=trapezoid;perimeter=trapezoidPerimeter;whiteSpace=wrap;html=1;fixedSize=1;rotation=-90;size=8.75;" parent="1" vertex="1">
          <mxGeometry x="2740" y="1580" width="50" height="10" as="geometry" />
        </mxCell>
        <mxCell id="DLg5BMDLqmkaO7PMD6QA-104" value="" style="endArrow=classic;html=1;rounded=0;exitX=0.916;exitY=-0.002;exitDx=0;exitDy=0;exitPerimeter=0;entryX=0.206;entryY=1.005;entryDx=0;entryDy=0;entryPerimeter=0;" parent="1" source="DLg5BMDLqmkaO7PMD6QA-60" target="DLg5BMDLqmkaO7PMD6QA-103" edge="1">
          <mxGeometry width="50" height="50" relative="1" as="geometry">
            <mxPoint x="2780" y="1570" as="sourcePoint" />
            <mxPoint x="2830" y="1520" as="targetPoint" />
            <Array as="points">
              <mxPoint x="3070" y="1440" />
              <mxPoint x="3070" y="1600" />
            </Array>
          </mxGeometry>
        </mxCell>
        <mxCell id="DLg5BMDLqmkaO7PMD6QA-105" value="dataRead" style="edgeLabel;html=1;align=center;verticalAlign=middle;resizable=0;points=[];" parent="DLg5BMDLqmkaO7PMD6QA-104" vertex="1" connectable="0">
          <mxGeometry x="-0.8834" y="-1" relative="1" as="geometry">
            <mxPoint y="-13" as="offset" />
          </mxGeometry>
        </mxCell>
        <mxCell id="DLg5BMDLqmkaO7PMD6QA-106" value="" style="endArrow=classic;html=1;rounded=0;exitX=0.394;exitY=0.004;exitDx=0;exitDy=0;exitPerimeter=0;entryX=0.804;entryY=1.013;entryDx=0;entryDy=0;entryPerimeter=0;" parent="1" source="DLg5BMDLqmkaO7PMD6QA-103" target="DLg5BMDLqmkaO7PMD6QA-79" edge="1">
          <mxGeometry width="50" height="50" relative="1" as="geometry">
            <mxPoint x="2660" y="1580" as="sourcePoint" />
            <mxPoint x="2480" y="1510" as="targetPoint" />
            <Array as="points">
              <mxPoint x="2460" y="1590" />
              <mxPoint x="2460" y="1500" />
            </Array>
          </mxGeometry>
        </mxCell>
        <mxCell id="DLg5BMDLqmkaO7PMD6QA-107" value="&lt;font size=&quot;1&quot;&gt;0&lt;br&gt;&lt;br&gt;1&lt;br&gt;&lt;/font&gt;" style="text;html=1;strokeColor=none;fillColor=none;align=center;verticalAlign=middle;whiteSpace=wrap;rounded=0;" parent="1" vertex="1">
          <mxGeometry x="2735" y="1570" width="60" height="30" as="geometry" />
        </mxCell>
        <mxCell id="DLg5BMDLqmkaO7PMD6QA-108" value="" style="endArrow=classic;html=1;rounded=0;exitX=0.925;exitY=0.013;exitDx=0;exitDy=0;exitPerimeter=0;entryX=1;entryY=0.5;entryDx=0;entryDy=0;fillColor=#dae8fc;strokeColor=#6c8ebf;" parent="1" source="DLg5BMDLqmkaO7PMD6QA-3" target="DLg5BMDLqmkaO7PMD6QA-103" edge="1">
          <mxGeometry width="50" height="50" relative="1" as="geometry">
            <mxPoint x="2540" y="1250" as="sourcePoint" />
            <mxPoint x="2590" y="1200" as="targetPoint" />
            <Array as="points">
              <mxPoint x="2765" y="1200" />
            </Array>
          </mxGeometry>
        </mxCell>
        <mxCell id="DLg5BMDLqmkaO7PMD6QA-110" value="" style="shape=or;whiteSpace=wrap;html=1;rotation=-180;horizontal=0;" parent="1" vertex="1">
          <mxGeometry x="2560" y="922.65" width="35" height="45" as="geometry" />
        </mxCell>
        <mxCell id="DLg5BMDLqmkaO7PMD6QA-111" value="AND" style="text;html=1;strokeColor=none;fillColor=none;align=center;verticalAlign=middle;whiteSpace=wrap;rounded=0;horizontal=0;" parent="1" vertex="1">
          <mxGeometry x="2548" y="930.15" width="60" height="30" as="geometry" />
        </mxCell>
        <mxCell id="DLg5BMDLqmkaO7PMD6QA-114" value="" style="shape=trapezoid;perimeter=trapezoidPerimeter;whiteSpace=wrap;html=1;fixedSize=1;rotation=90;size=8.75;" parent="1" vertex="1">
          <mxGeometry x="2610.35" y="1440.15" width="50" height="10" as="geometry" />
        </mxCell>
        <mxCell id="DLg5BMDLqmkaO7PMD6QA-115" value="&lt;font size=&quot;1&quot;&gt;0&lt;br&gt;&lt;br&gt;1&lt;br&gt;&lt;/font&gt;" style="text;html=1;strokeColor=none;fillColor=none;align=center;verticalAlign=middle;whiteSpace=wrap;rounded=0;" parent="1" vertex="1">
          <mxGeometry x="2605.35" y="1430.15" width="60" height="30" as="geometry" />
        </mxCell>
        <mxCell id="DLg5BMDLqmkaO7PMD6QA-116" value="" style="endArrow=classic;html=1;rounded=0;entryX=0.786;entryY=1.032;entryDx=0;entryDy=0;entryPerimeter=0;" parent="1" target="DLg5BMDLqmkaO7PMD6QA-114" edge="1">
          <mxGeometry width="50" height="50" relative="1" as="geometry">
            <mxPoint x="2480" y="1460" as="sourcePoint" />
            <mxPoint x="2580" y="1400" as="targetPoint" />
            <Array as="points">
              <mxPoint x="2480" y="1570" />
              <mxPoint x="2610" y="1570" />
              <mxPoint x="2610" y="1460" />
            </Array>
          </mxGeometry>
        </mxCell>
        <mxCell id="DLg5BMDLqmkaO7PMD6QA-118" value="" style="endArrow=classic;html=1;rounded=0;exitX=0.475;exitY=-0.004;exitDx=0;exitDy=0;exitPerimeter=0;entryX=0.18;entryY=0.992;entryDx=0;entryDy=0;entryPerimeter=0;" parent="1" source="DLg5BMDLqmkaO7PMD6QA-4" target="DLg5BMDLqmkaO7PMD6QA-114" edge="1">
          <mxGeometry width="50" height="50" relative="1" as="geometry">
            <mxPoint x="2600" y="1470" as="sourcePoint" />
            <mxPoint x="2650" y="1420" as="targetPoint" />
          </mxGeometry>
        </mxCell>
        <mxCell id="DLg5BMDLqmkaO7PMD6QA-120" value="" style="endArrow=classic;html=1;rounded=0;exitX=0.189;exitY=-0.032;exitDx=0;exitDy=0;entryX=0.108;entryY=1.01;entryDx=0;entryDy=0;entryPerimeter=0;exitPerimeter=0;" parent="1" source="DLg5BMDLqmkaO7PMD6QA-114" target="DLg5BMDLqmkaO7PMD6QA-6" edge="1">
          <mxGeometry width="50" height="50" relative="1" as="geometry">
            <mxPoint x="2600" y="1470" as="sourcePoint" />
            <mxPoint x="2650" y="1420" as="targetPoint" />
          </mxGeometry>
        </mxCell>
        <mxCell id="DLg5BMDLqmkaO7PMD6QA-122" value="" style="endArrow=classic;html=1;rounded=0;entryX=0;entryY=0.5;entryDx=0;entryDy=0;fillColor=#dae8fc;strokeColor=#6c8ebf;exitX=1;exitY=0.11;exitDx=0;exitDy=0;exitPerimeter=0;" parent="1" source="DLg5BMDLqmkaO7PMD6QA-3" target="DLg5BMDLqmkaO7PMD6QA-114" edge="1">
          <mxGeometry width="50" height="50" relative="1" as="geometry">
            <mxPoint x="2570" y="1250" as="sourcePoint" />
            <mxPoint x="2640" y="1420" as="targetPoint" />
            <Array as="points">
              <mxPoint x="2589" y="1280" />
              <mxPoint x="2635" y="1280" />
            </Array>
          </mxGeometry>
        </mxCell>
        <mxCell id="DLg5BMDLqmkaO7PMD6QA-123" value="" style="endArrow=classic;html=1;rounded=0;entryX=0.135;entryY=1.006;entryDx=0;entryDy=0;entryPerimeter=0;" parent="1" target="DLg5BMDLqmkaO7PMD6QA-60" edge="1">
          <mxGeometry width="50" height="50" relative="1" as="geometry">
            <mxPoint x="2630" y="1370" as="sourcePoint" />
            <mxPoint x="2660" y="1340" as="targetPoint" />
            <Array as="points">
              <mxPoint x="2630" y="1320" />
            </Array>
          </mxGeometry>
        </mxCell>
        <mxCell id="DLg5BMDLqmkaO7PMD6QA-124" value="" style="endArrow=classic;html=1;rounded=0;entryX=0.661;entryY=0.995;entryDx=0;entryDy=0;entryPerimeter=0;" parent="1" target="DLg5BMDLqmkaO7PMD6QA-60" edge="1">
          <mxGeometry width="50" height="50" relative="1" as="geometry">
            <mxPoint x="2610" y="1430" as="sourcePoint" />
            <mxPoint x="2750" y="1400" as="targetPoint" />
            <Array as="points">
              <mxPoint x="2610" y="1340" />
              <mxPoint x="2920" y="1340" />
              <mxPoint x="2920" y="1400" />
            </Array>
          </mxGeometry>
        </mxCell>
        <mxCell id="DLg5BMDLqmkaO7PMD6QA-125" value="" style="ellipse;whiteSpace=wrap;html=1;aspect=fixed;fillColor=#030303;" parent="1" vertex="1">
          <mxGeometry x="2628" y="1368" width="4" height="4" as="geometry" />
        </mxCell>
        <mxCell id="DLg5BMDLqmkaO7PMD6QA-127" value="" style="ellipse;whiteSpace=wrap;html=1;aspect=fixed;fillColor=#030303;" parent="1" vertex="1">
          <mxGeometry x="2608" y="1428" width="4" height="4" as="geometry" />
        </mxCell>
        <mxCell id="DLg5BMDLqmkaO7PMD6QA-128" value="regWriteEnable" style="text;html=1;strokeColor=none;fillColor=none;align=center;verticalAlign=middle;whiteSpace=wrap;rounded=0;fontSize=8;" parent="1" vertex="1">
          <mxGeometry x="2535" y="1143" width="60" height="30" as="geometry" />
        </mxCell>
        <mxCell id="DLg5BMDLqmkaO7PMD6QA-129" value="isImALU" style="text;html=1;strokeColor=none;fillColor=none;align=center;verticalAlign=middle;whiteSpace=wrap;rounded=0;fontSize=8;" parent="1" vertex="1">
          <mxGeometry x="2547" y="1195" width="60" height="30" as="geometry" />
        </mxCell>
        <mxCell id="DLg5BMDLqmkaO7PMD6QA-78" value="memWriteEnable" style="text;html=1;strokeColor=none;fillColor=none;align=center;verticalAlign=middle;whiteSpace=wrap;rounded=0;fontSize=8;" parent="1" vertex="1">
          <mxGeometry x="2536" y="1066" width="60" height="30" as="geometry" />
        </mxCell>
        <mxCell id="DLg5BMDLqmkaO7PMD6QA-130" value="" style="shape=xor;whiteSpace=wrap;html=1;rotation=-180;" parent="1" vertex="1">
          <mxGeometry x="2421.25" y="930.15" width="47.5" height="55.45" as="geometry" />
        </mxCell>
        <mxCell id="DLg5BMDLqmkaO7PMD6QA-131" value="" style="endArrow=classic;html=1;rounded=0;exitX=0;exitY=0.25;exitDx=0;exitDy=0;entryX=0.175;entryY=0.25;entryDx=0;entryDy=0;entryPerimeter=0;fillColor=#dae8fc;strokeColor=#6c8ebf;" parent="1" source="DLg5BMDLqmkaO7PMD6QA-3" target="DLg5BMDLqmkaO7PMD6QA-130" edge="1">
          <mxGeometry width="50" height="50" relative="1" as="geometry">
            <mxPoint x="2410" y="1200" as="sourcePoint" />
            <mxPoint x="2460" y="1150" as="targetPoint" />
            <Array as="points">
              <mxPoint x="2581" y="972" />
            </Array>
          </mxGeometry>
        </mxCell>
        <mxCell id="DLg5BMDLqmkaO7PMD6QA-135" value="&lt;font style=&quot;font-size: 8px;&quot;&gt;branch&lt;/font&gt;" style="edgeLabel;html=1;align=center;verticalAlign=middle;resizable=0;points=[];" parent="DLg5BMDLqmkaO7PMD6QA-131" vertex="1" connectable="0">
          <mxGeometry x="0.417" relative="1" as="geometry">
            <mxPoint x="69" y="60" as="offset" />
          </mxGeometry>
        </mxCell>
        <mxCell id="DLg5BMDLqmkaO7PMD6QA-132" value="" style="endArrow=classic;html=1;rounded=0;exitX=1;exitY=0.5;exitDx=0;exitDy=0;exitPerimeter=0;entryX=0.179;entryY=0.713;entryDx=0;entryDy=0;entryPerimeter=0;" parent="1" source="DLg5BMDLqmkaO7PMD6QA-110" target="DLg5BMDLqmkaO7PMD6QA-130" edge="1">
          <mxGeometry width="50" height="50" relative="1" as="geometry">
            <mxPoint x="2540" y="940" as="sourcePoint" />
            <mxPoint x="2460" y="1150" as="targetPoint" />
          </mxGeometry>
        </mxCell>
        <mxCell id="DLg5BMDLqmkaO7PMD6QA-133" value="OR" style="text;html=1;strokeColor=none;fillColor=none;align=center;verticalAlign=middle;whiteSpace=wrap;rounded=0;horizontal=0;" parent="1" vertex="1">
          <mxGeometry x="2413.75" y="942.88" width="60" height="30" as="geometry" />
        </mxCell>
        <mxCell id="DLg5BMDLqmkaO7PMD6QA-136" value="" style="endArrow=classic;html=1;rounded=0;exitX=1;exitY=0.5;exitDx=0;exitDy=0;exitPerimeter=0;entryX=0.688;entryY=-0.008;entryDx=0;entryDy=0;entryPerimeter=0;" parent="1" source="DLg5BMDLqmkaO7PMD6QA-130" target="DLg5BMDLqmkaO7PMD6QA-1" edge="1">
          <mxGeometry width="50" height="50" relative="1" as="geometry">
            <mxPoint x="2390" y="960" as="sourcePoint" />
            <mxPoint x="2260" y="1040" as="targetPoint" />
            <Array as="points">
              <mxPoint x="1990" y="958" />
              <mxPoint x="1990" y="1100" />
            </Array>
          </mxGeometry>
        </mxCell>
        <mxCell id="DLg5BMDLqmkaO7PMD6QA-137" value="branch" style="edgeLabel;html=1;align=center;verticalAlign=middle;resizable=0;points=[];" parent="DLg5BMDLqmkaO7PMD6QA-136" vertex="1" connectable="0">
          <mxGeometry x="0.9117" y="1" relative="1" as="geometry">
            <mxPoint x="46" as="offset" />
          </mxGeometry>
        </mxCell>
        <mxCell id="DLg5BMDLqmkaO7PMD6QA-139" value="" style="ellipse;whiteSpace=wrap;html=1;aspect=fixed;fillColor=#030303;" parent="1" vertex="1">
          <mxGeometry x="2388" y="1328" width="4" height="4" as="geometry" />
        </mxCell>
        <mxCell id="DLg5BMDLqmkaO7PMD6QA-141" value="" style="ellipse;whiteSpace=wrap;html=1;aspect=fixed;fillColor=#030303;" parent="1" vertex="1">
          <mxGeometry x="2388" y="1368" width="4" height="4" as="geometry" />
        </mxCell>
        <mxCell id="DLg5BMDLqmkaO7PMD6QA-142" value="" style="ellipse;whiteSpace=wrap;html=1;aspect=fixed;fillColor=#030303;" parent="1" vertex="1">
          <mxGeometry x="2388" y="1398" width="4" height="4" as="geometry" />
        </mxCell>
        <mxCell id="DLg5BMDLqmkaO7PMD6QA-143" value="" style="ellipse;whiteSpace=wrap;html=1;aspect=fixed;fillColor=#030303;" parent="1" vertex="1">
          <mxGeometry x="2388" y="1428" width="4" height="4" as="geometry" />
        </mxCell>
        <mxCell id="DLg5BMDLqmkaO7PMD6QA-145" value="" style="endArrow=classic;html=1;rounded=0;" parent="1" edge="1">
          <mxGeometry width="50" height="50" relative="1" as="geometry">
            <mxPoint x="2460" y="1330" as="sourcePoint" />
            <mxPoint x="2480" y="1380" as="targetPoint" />
            <Array as="points">
              <mxPoint x="2460" y="1380" />
            </Array>
          </mxGeometry>
        </mxCell>
        <mxCell id="DLg5BMDLqmkaO7PMD6QA-146" value="" style="ellipse;whiteSpace=wrap;html=1;aspect=fixed;fillColor=#030303;" parent="1" vertex="1">
          <mxGeometry x="2458" y="1329" width="4" height="4" as="geometry" />
        </mxCell>
        <mxCell id="DLg5BMDLqmkaO7PMD6QA-149" value="" style="endArrow=classic;html=1;rounded=0;entryX=0.315;entryY=1.006;entryDx=0;entryDy=0;entryPerimeter=0;" parent="1" target="DLg5BMDLqmkaO7PMD6QA-4" edge="1">
          <mxGeometry width="50" height="50" relative="1" as="geometry">
            <mxPoint x="2490" y="1390" as="sourcePoint" />
            <mxPoint x="2510" y="1390" as="targetPoint" />
          </mxGeometry>
        </mxCell>
        <mxCell id="DLg5BMDLqmkaO7PMD6QA-151" value="&lt;font size=&quot;1&quot;&gt;1&lt;br&gt;0&lt;br&gt;&lt;/font&gt;" style="text;html=1;strokeColor=none;fillColor=none;align=center;verticalAlign=middle;whiteSpace=wrap;rounded=0;" parent="1" vertex="1">
          <mxGeometry x="2454" y="1375" width="60" height="30" as="geometry" />
        </mxCell>
        <mxCell id="DLg5BMDLqmkaO7PMD6QA-152" value="" style="endArrow=classic;html=1;rounded=0;entryX=0;entryY=0.5;entryDx=0;entryDy=0;fillColor=#dae8fc;strokeColor=#6c8ebf;exitX=0.819;exitY=1.006;exitDx=0;exitDy=0;exitPerimeter=0;" parent="1" source="DLg5BMDLqmkaO7PMD6QA-3" target="DLg5BMDLqmkaO7PMD6QA-147" edge="1">
          <mxGeometry width="50" height="50" relative="1" as="geometry">
            <mxPoint x="2530" y="1180" as="sourcePoint" />
            <mxPoint x="2490" y="1371.081081081081" as="targetPoint" />
            <Array as="points">
              <mxPoint x="2486" y="1180" />
            </Array>
          </mxGeometry>
        </mxCell>
        <mxCell id="DLg5BMDLqmkaO7PMD6QA-153" value="&lt;font size=&quot;1&quot;&gt;regChange&lt;/font&gt;" style="text;html=1;strokeColor=none;fillColor=none;align=center;verticalAlign=middle;whiteSpace=wrap;rounded=0;" parent="1" vertex="1">
          <mxGeometry x="2531" y="1164" width="60" height="30" as="geometry" />
        </mxCell>
        <mxCell id="DLg5BMDLqmkaO7PMD6QA-156" value="op2" style="text;html=1;strokeColor=none;fillColor=none;align=center;verticalAlign=middle;whiteSpace=wrap;rounded=0;" parent="1" vertex="1">
          <mxGeometry x="2641" y="1408" width="60" height="30" as="geometry" />
        </mxCell>
        <mxCell id="DLg5BMDLqmkaO7PMD6QA-158" value="&lt;font style=&quot;font-size: 10px;&quot;&gt;address&lt;/font&gt;" style="text;html=1;strokeColor=none;fillColor=none;align=center;verticalAlign=middle;whiteSpace=wrap;rounded=0;" parent="1" vertex="1">
          <mxGeometry x="2949" y="1303" width="60" height="30" as="geometry" />
        </mxCell>
        <mxCell id="DLg5BMDLqmkaO7PMD6QA-161" value="" style="endArrow=classic;html=1;rounded=0;fillColor=#dae8fc;strokeColor=#6c8ebf;" parent="1" edge="1">
          <mxGeometry width="50" height="50" relative="1" as="geometry">
            <mxPoint x="2020" y="1000" as="sourcePoint" />
            <mxPoint x="1870" y="1000" as="targetPoint" />
          </mxGeometry>
        </mxCell>
      </root>
    </mxGraphModel>
  </diagram>
</mxfile>
